PathFileType	4	(X/Y/Z)	C:/Users/beibeiliu/ov580/test_trc\sequence.37_training_dense_left.trc
DataRate	CameraRate	NumFrames	NumMarkers	Units	OrigDataRate	OrigDataStartFrame	OrigNumFrames
120	120	11	19	mm	120	1	269
Frame#	Time	ThumbCMC			ThumbMCP			ThumbIP			ThumbTip			IndexMCP			IndexPIP			IndexTip			MiddleMCP			MiddlePIP			MiddleTip			RingMCP			RingPIP			RingTip			PinkyMCP			PinkyPIP			PinkyTip			BackHand1			BackHand2			BackHand3	
		X0	Y0	Z0	X1	Y1	Z1	X2	Y2	Z2	X3	Y3	Z3	X4	Y4	Z4	X5	Y5	Z5	X6	Y6	Z6	X7	Y7	Z7	X8	Y8	Z8	X9	Y9	Z9	X10	Y10	Z10	X11	Y11	Z11	X12	Y12	Z12	X13	Y13	Z13	X14	Y14	Z14	X15	Y15	Z15	X16	Y16	Z16	X17	Y17	Z17	X18	Y18	Z18	
0	0	-161.983	-17.2957	63.5911	-145.285	-24.2022	45.3369	-130.703	-25.6593	25.785	-119.984	-29.1515	6.33236	-164.793	-22.408	-6.04927	-157.538	-28.5821	-26.3368	-150.579	-36.0491	-52.6726	-184.507	-24.2114	-15.2982	-183.784	-29.2039	-38.3766	-184.431	-35.7956	-63.1888	-203.12	-26.2477	-11.5148	-204.258	-29.3692	-29.2241	-205.568	-34.1544	-50.323	-227.564	-30.2494	2.79517	-230.847	-33.1507	-10.9997	-233.86	-32.3217	-31.8397	-206.769	-10.0913	29.0453	-210.455	-1.93202	58.5768	-183.503	-2.82071	44.1018	
1	0.00833333	-162.273	-17.6082	62.2398	-143.969	-23.2776	44.9687	-135.397	-26.4878	25.3715	-120.453	-29.7065	7.46442	-164.555	-20.666	-6.56682	-158.526	-26.5884	-29.771	-152.842	-34.0151	-52.861	-182.938	-22.3597	-16.6535	-182.419	-26.2374	-34.6987	-184.199	-32.6704	-62.129	-206.936	-23.0759	-8.65561	-202.566	-27.0668	-28.4319	-204.294	-30.6986	-54.1914	-223.831	-27.3959	7.3754	-231.975	-30.4176	-14.8339	-235.801	-28.6846	-29.0539	-208.384	-8.39637	33.9828	-207.754	0.716121	57.2747	-181.15	-2.40301	43.9998	
2	0.0166667	-161.5	-17.2647	65.4439	-145.086	-23.2696	48.6413	-130.419	-25.4359	24.2777	-122.069	-29.031	12.4653	-158.178	-19.8822	-7.86972	-158.248	-24.741	-26.0726	-148.887	-29.9089	-47.0151	-184.597	-19.4191	-12.2526	-181.723	-24.6922	-34.3697	-180.328	-29.3333	-58.7834	-200.906	-20.623	-5.0065	-201.93	-25.417	-31.4559	-204.295	-28.5178	-51.7439	-224.592	-24.2199	7.49606	-230.638	-28.4862	-11.2727	-233.131	-29.0498	-28.4287	-207.786	-5.83529	34.8385	-205.81	0.700148	59.0249	-181.811	-0.792933	48.2247	
3	0.025	-156.469	-14.674	62.7308	-143.642	-21.3767	47.1006	-130.573	-23.9839	27.6329	-119.273	-27.4971	15.7607	-159.441	-17.9654	-6.11442	-151.925	-22.3982	-27.4381	-152.641	-27.7585	-45.3376	-180.763	-17.6443	-9.30857	-180.242	-23.1239	-35.158	-181.312	-27.8069	-58.3418	-198.919	-19.0089	-6.31869	-201.244	-23.4611	-28.8586	-200.403	-26.1496	-45.5518	-218.334	-23.2586	9.58385	-224.659	-25.2171	-10.4743	-231.895	-24.5627	-26.8441	-204.196	-5.86107	33.7069	-208.005	2.20653	58.8598	-178.491	0.695267	46.8374	
4	0.0333333	-159.726	-14.7039	67.2314	-140.572	-19.6793	47.0713	-126.26	-22.2825	31.0911	-114.53	-25.4027	15.9937	-155.416	-15.6127	-1.14567	-152.297	-20.0725	-21.3279	-145.884	-25.0722	-43.0412	-176.425	-16.3574	-13.5448	-175.488	-22.9171	-35.7014	-176.886	-25.6903	-55.4053	-202.04	-19.3347	-4.37251	-198.233	-22.3628	-28.9609	-200.591	-26.47	-48.7475	-222.576	-22.9257	9.26421	-221.818	-24.6879	-7.99159	-230.772	-23.1092	-25.6398	-203.617	-3.4086	35.3023	-200.907	3.48234	59.2991	-177.939	0.649203	48.1852	
5	0.0416667	-157.61	-13.4311	64.5119	-140.553	-18.4983	49.1401	-127.018	-20.3942	28.5436	-112.659	-23.8823	16.2283	-153.435	-14.9084	1.37298	-152.954	-20.626	-24.313	-144.846	-24.6077	-41.6957	-179.244	-16.6495	-11.4548	-175.053	-20.9875	-31.995	-178.339	-26.0248	-55.5974	-201.261	-18.6771	-3.36343	-200.001	-22.237	-27.5686	-200.743	-25.4016	-44.5671	-219.017	-21.395	10.327	-220.557	-24.1704	-4.83317	-229.748	-24.4403	-23.4305	-199.582	-2.67608	40.2627	-202.563	3.32987	62.321	-173.824	1.65159	51.1235	
6	0.05	-154.554	-12.3602	66.7163	-137.135	-17.6793	50.2449	-127.826	-21.9467	33.9796	-114.944	-23.4032	18.185	-155.817	-15.5127	-2.79227	-149.054	-20.2063	-18.3125	-145.974	-24.8531	-40.8554	-179.379	-16.536	-10.679	-174.386	-20.5138	-28.3117	-175.544	-24.8691	-56.0679	-195.817	-18.0487	0.273793	-198	-21.9466	-23.162	-196.25	-23.7068	-46.8833	-220.604	-21.9665	11.8903	-223.905	-24.5885	-8.30438	-229.485	-23.6874	-23.7138	-197.858	-4.52974	42.3059	-203.584	3.73557	65.144	-176.582	3.61933	53.2004	
7	0.0583333	-154.488	-12.7444	72.5518	-137.41	-19.3338	54.3683	-122.909	-20.5285	32.3408	-110.659	-23.7931	20.6981	-153.839	-14.8311	-0.260665	-146.767	-21.1983	-21.8281	-145.866	-24.9372	-40.1858	-176.66	-16.4737	-9.12534	-174.628	-20.8777	-28.1519	-171.392	-25.6014	-57.1701	-194.603	-17.7061	-0.0655263	-199.386	-22.3061	-22.7485	-197.877	-24.9411	-42.3027	-219.82	-20.8794	10.3055	-221.107	-24.1364	-4.11259	-228.557	-24.3111	-25.7661	-202.207	-4.04797	42.6505	-202.191	3.48986	64.2988	-172.45	4.21277	53.6258	
8	0.0666667	-153.743	-13.8412	70.0052	-137.246	-19.939	51.8856	-126.364	-22.4559	33.8925	-111.275	-24.4192	17.1926	-153.105	-14.9093	2.53141	-147.055	-21.151	-22.3408	-139.145	-27.0734	-43.2551	-175.36	-15.5733	-5.36264	-176.047	-21.3115	-31.4734	-173.311	-25.4028	-54.3116	-195.58	-17.8676	-1.43621	-197.659	-22.1315	-22.0075	-193.357	-25.6847	-44.6179	-218.2	-21.3318	15.3048	-219.878	-23.9957	-2.71423	-227.899	-23.8649	-23.1202	-198.442	-4.96776	41.5967	-202.383	2.96417	67.5081	-173.642	1.72569	55.0391	
9	0.075	-155.631	-14.3403	71.5263	-133.12	-20.0709	53.7178	-121.255	-22.2691	37.3591	-113.161	-26.7796	21.1008	-151.296	-16.0885	1.76154	-149.652	-20.987	-17.8688	-142.822	-26.5254	-40.9268	-173.099	-16.1498	-7.3964	-171.274	-20.7748	-28.8602	-171.845	-25.9779	-52.5491	-191.712	-17.8461	-2.21006	-197.905	-21.9099	-20.312	-194.404	-26.7758	-42.7018	-212.881	-21.7933	15.4097	-221.024	-24.6929	-4.97641	-225.057	-24.8629	-22.6362	-200.769	-4.8575	41.9073	-201.133	2.90568	63.4261	-172.358	1.98378	55.9116	
10	0.0833333	-153.399	-13.6883	70.1271	-135.512	-20.3647	54.2461	-122.911	-23.4993	35.1125	-109.875	-26.2086	19.9651	-153.741	-17.4794	0.736676	-146.92	-22.3149	-18.1122	-143.232	-28.371	-42.765	-174.308	-17.4948	-8.76634	-172.142	-22.3987	-27.3621	-175.399	-27.0538	-52.1866	-198.212	-19.8484	0.0379693	-197.251	-22.8745	-20.3517	-193.693	-26.6937	-43.9107	-213.171	-22.8538	15.2737	-220.178	-24.7038	-4.33181	-224.752	-25.8132	-21.8366	-200.767	-5.56471	42.5646	-200.493	0.955965	63.0294	-174.439	2.01652	54.5597	
